<?xml version="1.0" encoding="utf-8"?>
<!-- Generated by IcoMoon.io -->
<!DOCTYPE svg PUBLIC "-//W3C//DTD SVG 1.1//EN" "http://www.w3.org/Graphics/SVG/1.1/DTD/svg11.dtd">
<svg version="1.1" xmlns="http://www.w3.org/2000/svg" xmlns:xlink="http://www.w3.org/1999/xlink" width="64" height="64" viewBox="0 0 64 64">
<g>
</g>
	<path d="M12 36.143v27.714c0.653 0.093 1.321 0.143 2 0.143h2v-28h-2c-0.679 0-1.347 0.049-2 0.143zM48 36v28h2c0.679 0 1.347-0.049 2-0.143v-27.714c-0.653-0.093-1.321-0.143-2-0.143h-2zM64 32c0-17.673-14.327-32-32-32s-32 14.327-32 32c0 3.839 0.677 7.519 1.916 10.93-1.217 2.075-1.916 4.491-1.916 7.070 0 5.585 3.27 10.405 8 12.652v-25.304c-1.258 0.598-2.411 1.379-3.429 2.306-0.375-1.826-0.571-3.717-0.571-5.654 0-15.464 12.536-28 28-28s28 12.536 28 28c0 1.937-0.197 3.828-0.571 5.654-1.017-0.928-2.171-1.709-3.429-2.306v25.304c4.73-2.247 8-7.067 8-12.652 0-2.58-0.699-4.995-1.916-7.070 1.239-3.41 1.916-7.091 1.916-10.93z" fill="#333333"></path>
</svg>
