<?xml version="1.0" encoding="utf-8"?>
<!-- Generated by IcoMoon.io -->
<!DOCTYPE svg PUBLIC "-//W3C//DTD SVG 1.1//EN" "http://www.w3.org/Graphics/SVG/1.1/DTD/svg11.dtd">
<svg version="1.1" xmlns="http://www.w3.org/2000/svg" xmlns:xlink="http://www.w3.org/1999/xlink" width="80" height="80" viewBox="0 0 80 80">
<g>
</g>
	<path d="M68.5 28.692l-8.184-22.544c-0.604-1.664-2.38-2.544-3.956-1.968l-54.388 19.852c-1.58 0.572-2.376 2.388-1.772 4.052l8.628 23.768v-12.74c0-5.748 4.592-10.42 10.244-10.42h14.372l17.14-12.032 9.92 12.032h7.996zM76.952 35.908h-57.88c-1.68 0-3.048 1.436-3.048 3.208v37.684c0 1.768 1.364 3.208 3.048 3.208h57.88c1.684 0 3.048-1.436 3.048-3.208v-37.688c0-1.768-1.364-3.204-3.048-3.204zM72.536 71.988h-47.98v-6.876l7.38-17.18 11.076 13.748 10.388-10.648 13.356-4.82 5.78 12.888v12.888z" fill="#333333"></path>
</svg>
